<svg width="51" height="51" viewBox="0 0 51 51" fill="none" xmlns="http://www.w3.org/2000/svg">
<g clip-path="url(#clip0)">
<path d="M0.167969 20.1992C0.167969 22.0721 1.68634 23.5918 3.56057 23.5918H20.2926C19.3561 23.5918 18.507 23.9714 17.8927 24.5857C17.7853 24.6931 17.6854 24.8067 17.5942 24.9278C17.1572 25.4985 16.8987 26.2114 16.8987 26.9856C16.8987 28.8586 18.4184 30.3782 20.2926 30.3782H22.6338C21.6961 30.3782 20.8482 30.7578 20.2339 31.3721C19.6196 31.9865 19.24 32.8356 19.24 33.7721C19.24 35.6463 20.7596 37.1647 22.6338 37.1647L24.2284 37.1659C22.6126 37.1659 21.2491 38.4408 21.2241 40.0566C21.2103 40.8869 21.5425 41.6386 22.0844 42.1818C22.6151 42.7125 23.3505 43.0421 24.1622 43.0421H39.0087C39.7891 43.0421 40.567 42.9872 41.3375 42.876C42.1079 42.7661 42.8708 42.6001 43.6188 42.3816C44.6826 42.0706 45.7652 41.8359 46.8603 41.6798C47.9541 41.5237 49.0592 41.4451 50.168 41.4451V18.8119H46.6867C46.1236 18.8119 45.5879 18.6496 45.1321 18.3599C44.6751 18.0702 44.2993 17.6531 44.0595 17.1437C43.8285 16.653 43.4327 16.0137 43.0369 15.418C42.3002 14.308 41.27 13.4227 40.0638 12.857L31.955 9.05738C30.5678 8.40558 28.9283 8.62659 27.7633 9.62177L26.2437 10.9191C25.3621 11.6721 24.2009 12.013 23.0546 11.8569C22.9173 11.8381 22.7812 11.8282 22.6476 11.8282C21.038 11.8282 19.687 13.1367 19.687 14.795C19.687 15.0235 19.7032 15.2482 19.7332 15.468C19.7969 15.9375 19.9267 16.3858 20.1128 16.8041H3.56057C2.62283 16.8041 1.77499 17.1836 1.16065 17.7992C0.547561 18.4136 0.167969 19.2627 0.167969 20.1992Z" fill="#FCD09F"/>
<path d="M19.7334 15.468C19.7971 15.9375 19.9269 16.3858 20.113 16.8041H32.8243C32.8243 16.4345 32.6745 16.1011 32.4322 15.8588C32.19 15.6179 31.8566 15.468 31.487 15.468H19.7334Z" fill="#E2B991"/>
</g>
<defs>
<clipPath id="clip0">
<rect width="50" height="50" fill="white" transform="translate(0.167969 0.864746)"/>
</clipPath>
</defs>
</svg>
